<?xml version="1.0" encoding="utf-8"?>
<!-- Generator: Adobe Illustrator 22.0.0, SVG Export Plug-In . SVG Version: 6.00 Build 0)  -->
<svg version="1.1" id="Camada_  1" xmlns="http://www.w3.org/2000/svg" xmlns:xlink="http://www.w3.org/1999/xlink" x="0px" y="0px"
     viewBox="0 0 659.6 425" style="enable-background:new 0 0 659.6 425;" xml:space="preserve">
<style type="text/css">
	.st0{fill:#FFFFFF;}
</style>
    <g>
	<g>
		<path class="st0" d="M295.6,266.4l-58.2-58.2l-40.7,40.4l19.3,19.3c3.1,3.1,4.8,6.6,5.6,10.7h28.2c1.3-3.3,4.6-5.3,8.1-5.3
			c4.8,0,8.9,4.1,8.9,8.9s-4.1,8.9-8.9,8.9c-4.1,0-7.4-2.5-8.4-6.1h-28c-0.5,4.1-2.5,8.1-5.6,11.4l-20.8,20.8l41.4,41.2l59-59
			C304.8,290.3,304.8,275.5,295.6,266.4z"/>
        <path class="st0" d="M89.2,296.1c-3.1-3.1-4.8-6.6-5.6-10.7H55.4c-1.3,3.3-4.6,5.3-8.1,5.3c-4.8,0-8.9-4.1-8.9-8.9
			s4.1-8.9,8.9-8.9c4.1,0,7.4,2.5,8.4,6.1h28c0.5-4.1,2.5-8.1,5.6-11.4l19.1-19.1l-41.9-41.7L6.9,266.4c-9.2,9.2-9.2,23.9,0,33
			l60.2,60.2l43-43L89.2,296.1z"/>
        <path class="st0" d="M138.5,218.6c2.5-2.5,5.8-4.3,9.4-5.3v-27.2c-3.3-1.3-5.3-4.6-5.3-8.1c0-4.8,4.1-8.9,8.9-8.9
			c4.8,0,8.9,4.1,8.9,8.9c0,4.1-2.5,7.4-6.1,8.4V213c4.6,0.3,9.2,2.3,12.7,5.8l20.6,20.6L228,199l-60.2-60.5c-9.2-9.2-23.9-9.2-33,0
			l-59,59l41.9,41.9L138.5,218.6z"/>
        <path class="st0" d="M174.4,314.9l9.4-9.4l9.4-9.4c7.9-7.9,7.9-20.3,0-28.2l-7.9-7.9l-9.4-9.4l-9.2-9.2c-7.9-7.9-20.3-7.9-28.2,0
			l-9.4,9.4l-9.4,9.4l-7.6,7.6c-7.9,7.9-7.9,20.3,0,28.2l9.2,9.2l9.4,9.4l-11.4,11.4l-43,43l55.9,55.9v-76.8c0-2.5,1-4.6,2.5-6.4
			c1.5-1.5,3.8-2.5,6.4-2.5H164c2.5,0,4.6,1,6.4,2.5c1.5,1.5,2.5,3.8,2.5,6.4v73.7l54.1-54.1l-41.4-41.4L174.4,314.9z M172.6,294.3
			c-2.3,4.1-5.6,7.1-9.7,9.2c-3.1,1.5-6.6,2.5-10.2,2.5c-3.8,0-7.6-1-10.7-2.8c-4.1-2-7.4-5.3-9.4-9.4c-1.8-3.3-2.8-6.9-2.8-10.7
			c0-3.8,1-7.1,2.5-10.2c2-4.1,5.3-7.4,9.2-9.7c3.3-1.8,7.1-3.1,11.2-3.1c3.8,0,7.6,1,10.7,2.8c4.1,2,7.4,5.3,9.4,9.4
			c1.8,3.3,2.8,6.9,2.8,10.7C175.6,287.2,174.6,291,172.6,294.3z"/>
	</g>
        <g>
		<g>
			<path class="st0" d="M84.4,59c-0.3-0.5-0.5-1-0.5-1.5V2c0-0.5,0.3-1,0.5-1.5C84.9,0.3,85.2,0,85.9,0H90c1,0,1.8,0.5,2,1.3
				l18,34.8l18.3-34.8c0.5-0.8,1-1.3,2-1.3h4.1c0.5,0,1,0.3,1.5,0.5c0.3,0.3,0.5,0.8,0.5,1.5v55.4c0,0.5-0.3,1-0.5,1.5
				c-0.3,0.3-0.8,0.5-1.5,0.5h-3.8c-0.5,0-1-0.3-1.3-0.5c-0.3-0.3-0.5-0.8-0.5-1.5V15.3l-14.5,28.2c-0.5,1.3-1.5,1.8-2.8,1.8H109
				c-1.3,0-2-0.5-2.8-1.8L91.8,15.3v42.2c0,0.5-0.3,1-0.5,1.5c-0.3,0.3-0.8,0.5-1.5,0.5h-3.8C85.4,59.5,84.9,59.2,84.4,59z"/>
            <path class="st0" d="M145.9,59c-0.3-0.3-0.5-0.8-0.5-1.3l0.3-1l21.1-54.9c0.5-1.3,1.3-1.8,2.5-1.8h5.3c1.3,0,2.3,0.5,2.8,1.8
				l21.1,54.9l0.3,1c0,0.5-0.3,0.8-0.5,1.3c-0.3,0.3-0.8,0.5-1.3,0.5h-4.1c-0.5,0-1-0.3-1.5-0.5c-0.5-0.3-0.5-0.8-0.8-1l-4.6-12.2
				h-28L153.5,58c-0.5,1-1.3,1.5-2,1.5h-4.1C146.7,59.5,146.4,59.2,145.9,59z M160.4,38.6h23.1L171.8,8.1L160.4,38.6z"/>
            <path class="st0" d="M208.4,59c-0.3-0.3-0.5-0.8-0.5-1.5V2c0-0.5,0.3-1,0.5-1.5c0.3-0.3,0.8-0.5,1.3-0.5h19.1
				c8.6,0,14.7,2,18.6,5.8c4.1,3.8,5.8,9.4,6.1,17c0,1.5,0,3.8,0,6.6s0,5.1,0,6.6c0,5.3-1,9.7-2.5,13.2c-1.5,3.3-4.1,5.8-7.6,7.6
				c-3.6,1.5-8.1,2.5-13.7,2.5H210C209.2,59.5,208.7,59.2,208.4,59z M229,52.4c4.1,0,7.1-0.5,9.4-1.8c2.3-1,4.1-2.8,5.1-5.1
				c1-2.3,1.5-5.6,1.8-9.7c0-3.3,0.3-5.6,0.3-6.4c0-1,0-3.1-0.3-6.4c0-5.6-1.5-9.9-4.1-12.5s-6.9-4.1-12.7-4.1h-12.7v45.5H229V52.4z
				"/>
            <path class="st0" d="M266.9,59c-0.3-0.3-0.5-0.8-0.5-1.5V2c0-0.5,0.3-1,0.5-1.5c0.3-0.3,0.8-0.5,1.3-0.5H303c0.5,0,1,0.3,1.5,0.5
				c0.3,0.3,0.5,0.8,0.5,1.5v3.1c0,0.5-0.3,1-0.5,1.3c-0.3,0.3-0.8,0.5-1.5,0.5h-29v18.8h27.2c0.5,0,1,0.3,1.5,0.5
				c0.5,0.3,0.5,0.8,0.5,1.5v2.8c0,0.5-0.3,1-0.5,1.5c-0.3,0.3-0.8,0.5-1.5,0.5H274v19.6h29.7c0.5,0,1,0.3,1.5,0.5
				c0.3,0.3,0.5,0.8,0.5,1.5v3.1c0,0.5-0.3,1-0.5,1.5c-0.5,0.3-0.8,0.5-1.5,0.5h-35.6C267.7,59.5,267.2,59.2,266.9,59z"/>
            <path class="st0" d="M339.1,59c-0.3-0.3-0.5-0.8-0.5-1.5V2c0-0.5,0.3-1,0.5-1.5c0.3-0.3,0.8-0.5,1.3-0.5h23.1
				c6.1,0,10.4,1.5,13.5,4.3s4.6,6.6,4.6,11.2c0,3.1-0.8,5.8-2.3,7.9c-1.5,2-3.3,3.6-5.1,4.6c2.5,1.3,4.6,3.1,6.1,5.6
				s2.5,5.3,2.5,8.6c0,3.1-0.8,6.1-2.3,8.6c-1.5,2.5-3.6,4.6-6.4,6.1s-6.1,2.3-10.2,2.3h-23.9C339.8,59.5,339.3,59.2,339.1,59z
				 M362.5,25.2c3.6,0,6.4-0.8,8.4-2.5c2-1.8,2.8-4.1,2.8-7.1s-1-5.1-2.8-6.6c-1.8-1.5-4.8-2.3-8.4-2.3h-15.8v18.6H362.5z
				 M363.2,52.6c3.6,0,6.4-1,8.6-3.1c2-2,3.1-4.6,3.1-7.6s-1-5.6-3.1-7.6c-2-2-4.8-2.8-8.6-2.8h-16.5v20.8h16.5V52.6z"/>
            <path class="st0" d="M409.7,59c-0.3-0.3-0.5-0.8-0.5-1.5V37.4L388.9,2.8c-0.3-0.3-0.3-0.8-0.3-1c0-0.5,0.3-0.8,0.5-1.3
				c0.3-0.5,0.8-0.5,1.3-0.5h4.1c1,0,1.8,0.5,2.3,1.5l16.8,27.7l16.8-27.7c0.5-1,1.3-1.5,2.3-1.5h4.1c0.5,0,0.8,0.3,1.3,0.5
				s0.5,0.8,0.5,1.3c0,0.3,0,0.8-0.3,1l-20.3,34.6v20.1c0,0.5-0.3,1-0.5,1.5c-0.3,0.5-0.8,0.5-1.5,0.5h-4.1
				C410.8,59.5,410.3,59.2,409.7,59z"/>
		</g>
	</g>
        <g>
		<path class="st0" d="M442.5,301c-1,13.7-6.1,24.7-15.3,32.5c-9.2,7.9-21.4,11.9-36.3,11.9c-16.3,0-29.2-5.6-38.6-16.5
			c-9.4-10.9-14-26.2-14-45.5v-7.9c0-12.2,2.3-23.1,6.6-32.5c4.3-9.4,10.4-16.5,18.6-21.6c8.1-5.1,17.3-7.6,28-7.6
			c14.7,0,26.7,4.1,35.6,11.9c8.9,7.9,14.2,19.1,15.5,33.3h-26.4c-0.8-8.1-3.1-14.2-6.9-18c-4.1-3.8-9.9-5.6-18-5.6
			c-8.9,0-15.3,3.1-19.8,9.4c-4.6,6.4-6.6,16-6.6,29.2v9.7c0,13.7,2,23.9,6.4,30.2c4.1,6.4,10.7,9.7,19.8,9.7
			c8.1,0,14.2-1.8,18.3-5.6c4.1-3.8,6.4-9.4,6.9-17.3h26.4V301z"/>
            <path class="st0" d="M553.4,237.2h-39.1v106.5H488V237.2h-38.6v-21.4h104.2v21.4H553.4z"/>
            <path class="st0" d="M633.4,310.1c0-5.1-1.8-8.9-5.3-11.4s-9.9-5.6-19.1-8.4c-9.2-3.1-16.3-5.8-21.6-8.6
			c-14.5-7.9-21.9-18.3-21.9-31.8c0-6.9,2-13,5.8-18.6c3.8-5.3,9.4-9.7,16.8-12.7c7.4-3.1,15.5-4.6,24.7-4.6
			c9.2,0,17.3,1.8,24.4,5.1c7.1,3.3,12.7,7.9,16.5,14c3.8,6.1,5.8,13,5.8,20.6h-26.4c0-5.8-1.8-10.4-5.6-13.7
			c-3.8-3.3-8.9-4.8-15.5-4.8c-6.4,0-11.4,1.3-15,4.1s-5.3,6.4-5.3,10.7c0,4.1,2,7.6,6.4,10.4s10.4,5.3,18.6,7.9
			c15,4.6,25.9,10.2,32.8,16.8c6.9,6.6,10.2,15,10.2,24.9c0,11.2-4.1,19.8-12.5,25.9s-19.6,9.4-33.8,9.4c-9.9,0-18.8-1.8-26.9-5.3
			c-8.1-3.6-14.2-8.6-18.6-14.7c-4.3-6.4-6.4-13.5-6.4-21.9h26.4c0,14.2,8.4,21.1,25.2,21.1c6.4,0,11.2-1.3,14.7-3.8
			C631.7,318.2,633.4,314.7,633.4,310.1z"/>
	</g>
</g>
</svg>
